<svg width="101" height="100" viewBox="0 0 101 100" fill="none" xmlns="http://www.w3.org/2000/svg">
<path d="M72.75 55C76.5 55 79.8 52.95 81.5 49.85L99.4 17.4C101.25 14.1 98.85 10 95.05 10H21.05L16.35 0H0V10H10L28 47.95L21.25 60.15C17.6 66.85 22.4 75 30 75H90V65H30L35.5 55H72.75ZM25.8 20H86.55L72.75 45H37.65L25.8 20ZM30 80C24.5 80 20.05 84.5 20.05 90C20.05 95.5 24.5 100 30 100C35.5 100 40 95.5 40 90C40 84.5 35.5 80 30 80ZM80 80C74.5 80 70.05 84.5 70.05 90C70.05 95.5 74.5 100 80 100C85.5 100 90 95.5 90 90C90 84.5 85.5 80 80 80Z" fill="black"/>
</svg>
